<?xml version="1.0" encoding="UTF-8"?>
<svg id="Layer_1" xmlns="http://www.w3.org/2000/svg" version="1.1" viewBox="0 0 192 192">
  <!-- Generator: Adobe Illustrator 29.6.0, SVG Export Plug-In . SVG Version: 2.1.1 Build 207)  -->
  <defs>
    <style>
      .st0 {
        fill: #fdd600;
      }

      .st1 {
        fill: #066;
      }

      .st2 {
        fill: #231f20;
      }

      .st3 {
        fill: #0a0a0a;
      }
    </style>
  </defs>
  <rect class="st3" width="192" height="192"/>
  <g>
    <circle class="st1" cx="96" cy="96" r="60"/>
    <g>
      <g>
        <path class="st0" d="M92.56,53.24l-.11,7.84s-17.07-5.09-17.49,4.2c0,0-.58,19.06-4.74,21.55,0,0,3.4,2.57,3.98,13.2-2.44.59-5.17,1.46-8.08,2.74l-.85-8.45s-.35-5.18-7-4.97v-5.46s5.95,1.89,6.86-5.39l1.14-12.57s.62-12.1,9.8-13.28c0,0,6.13-1.34,16.48.59Z"/>
        <path class="st0" d="M98.23,82.49v21.14c-2.56-1.79-5.75-3.6-8.96-4.33v-8.41h-7.56v-8.4h16.51Z"/>
        <path class="st0" d="M98.23,116.84v.71s-10.71,6.65-22.39,3.22c0,0-8.84-1.81-9.55-15.77,1.44-.51,4.57-1.52,8.22-2.16l.71,5.75s.21,7.77,14.07,4.06v-4.62c1.23.79,3.34,2.31,4.57,4.08,0,0,0,0,0,.01.11.15,1.84,2.57,4.38,4.71Z"/>
        <path d="M120.86,83.56s.07.05.2.16l-1.98,8.33s0,.02,0,.03c-.35,1.71-.69,3.19-1.02,4.47-1.34-1.52-2.86-3-4.46-4.04-.84-.55-1.67-1.12-2.46-1.74-3.57-2.81-11.49-9.67-11.21-15.2,0,0-1.68-10.78,9.03-15.19,10.71-4.41,17.61-.37,17.61-.37l-1.82,7.98s-3.85-7.35-11.41-4.52c-1.78.67-3.1,2.2-3.46,4.07-.64,3.32.44,9.09,11,16.03Z"/>
        <path d="M130.05,113.98s-4.29,5.41-13.67,5.46c0,0,11.95-6.72,6.53-16.09,0,0-.05-.08-.14-.23.16-.8.39-1.77.72-2.94.83-2.93,1.84-5.61,1.86-5.64,0-.03.02-.05.02-.08.52-1.75,1-3.59,1.44-5.5,3.16,3.31,6.48,7.7,7.01,11.91,1.03,8.3-3.78,13.11-3.78,13.11Z"/>
        <path d="M110.37,117.17s-2.69,3.17-7.27,1.48c-1.8-.67-3.48-1.9-4.86-3.16-2.14-1.95-3.55-3.95-3.55-3.95-1.54-2.23-4.29-4.03-5.4-4.7-.31-.19-.49-.29-.49-.29-4.3-2.61-9.02-2.83-9.02-2.83,3.4-.67,7.13.19,9.51.96,1.46.47,2.41.91,2.48.93-.8-.6-1.64-1.09-2.48-1.5-4.01-1.94-8.02-1.88-8.02-1.88,1.61-.55,6.89.52,7.02.54-4.05-1.96-9.37-1.74-13.9-.96-3.51.61-6.55,1.56-8.14,2.11-.67.23-1.08.39-1.16.42.39-.19.77-.36,1.15-.53,2.9-1.29,5.62-2.18,8.05-2.78,7.18-1.77,11.95-1.07,11.95-1.07,1-.02,2.02.11,3.05.36,3.22.78,6.45,2.72,8.96,4.55,2.81,2.05,4.73,3.96,4.73,3.96,5.39,5.13,8.54,6.02,8.54,6.02.09.99-1.13,2.3-1.13,2.3Z"/>
        <path d="M131.22,53.41s-.42-2.73-1.47,0c-1.03,2.68-8.87,42.15-11.8,47.78-.12.23-.23.46-.34.7-.34.78-1.17,2.46-2.35,3.45,0,0-.48.51.22.39,0,0-2.36,2.08-2.5,5.68,0,0,.23,7.7-4.71,8.51,0,0,8.33,1.05,12.13-6.39,0,0,1.67-3.14.87-6.09,0,0,.36.32.35-.15,0,0-.32-4.2.71-5.85,0,0,6.84-19.86,8.89-48.03ZM116.24,110.44l.23-4.2s.47-.22.82.28-1.05,3.92-1.05,3.92ZM119.47,110.3l.48-3.25s.3-.02.52.16c.22.18-1,3.1-1,3.1ZM121.22,102.97l-.06,3.92s-3.79-1.76-4.77-1.51c-.98.25,0-.58,0-.58,0,0,3.8-5.79,4.53-12.13,0,0,2.11,1.09,2.92,1.01l-2.61,9.28Z"/>
      </g>
      <g>
        <path class="st2" d="M62.58,138.85c-.19.32-.42.55-.71.7-.29.15-.65.22-1.08.22-.91,0-1.6-.35-2.06-1.06-.46-.71-.7-1.75-.7-3.13s.23-2.43.7-3.14c.46-.71,1.15-1.06,2.06-1.06.77,0,1.38.25,1.84.76.46.51.72,1.21.79,2.11h-1.74c-.09-.32-.2-.56-.34-.72s-.31-.24-.51-.24c-.33,0-.6.21-.8.62-.2.41-.3.97-.3,1.67s.1,1.25.3,1.64c.2.39.47.58.83.58.26,0,.48-.09.66-.28s.28-.44.32-.77h-.66v-1.72h2.29v4.53h-.72l-.17-.71Z"/>
        <path class="st2" d="M67.36,131.59c.36,0,.64.03.86.1.21.07.38.17.5.31.15.18.27.41.35.71.08.3.12.64.12,1.03,0,.47-.06.88-.18,1.24s-.29.62-.5.77c.18.15.31.33.38.55s.12.6.13,1.15c0,.06,0,.15,0,.25.03,1.04.1,1.62.22,1.74v.12h-1.77c-.05-.17-.08-.5-.09-.98,0-.28-.01-.5-.02-.66-.02-.29-.07-.5-.15-.61-.08-.12-.23-.18-.42-.18h-.95v2.43h-1.61v-7.97h3.12ZM65.85,135.03h.93c.24,0,.41-.06.51-.17.1-.11.15-.3.15-.56s-.05-.44-.14-.54c-.09-.1-.28-.15-.56-.15h-.89v1.42Z"/>
        <path class="st2" d="M69.26,139.56l1.78-7.97h2.02l1.66,7.97h-1.72l-.14-.78h-1.75l-.15.78h-1.7ZM71.48,136.81h1.02l-.49-2.8-.52,2.8Z"/>
        <path class="st2" d="M75,139.56v-7.97h3.07c.58,0,1.03.23,1.34.68s.47,1.09.47,1.91-.16,1.45-.47,1.91-.76.68-1.34.68h-1.48v2.8h-1.59ZM77.46,133.3h-.87v1.72h.87c.26,0,.44-.06.54-.19.1-.13.15-.35.15-.67s-.05-.54-.15-.67c-.1-.13-.28-.19-.54-.19Z"/>
        <path class="st2" d="M80.43,139.56v-7.97h1.59v2.76h1.81v-2.76h1.59v7.97h-1.59v-3.22h-1.81v3.22h-1.59Z"/>
        <path class="st2" d="M86.32,139.56v-7.97h1.59v7.97h-1.59Z"/>
        <path class="st2" d="M92.22,134.93c-.03-.49-.12-.87-.27-1.13-.15-.26-.36-.39-.63-.39-.34,0-.6.19-.78.56-.18.37-.27.9-.27,1.6s.09,1.22.27,1.59c.18.37.44.55.78.55.25,0,.44-.11.6-.33.15-.22.25-.54.3-.97h1.83c-.08,1.1-.36,1.94-.82,2.5s-1.1.85-1.91.85c-.91,0-1.6-.35-2.06-1.06-.46-.71-.7-1.75-.7-3.13s.23-2.43.7-3.14c.46-.71,1.15-1.06,2.06-1.06.85,0,1.51.31,1.98.92s.71,1.49.74,2.64h-1.82Z"/>
      </g>
      <g>
        <path class="st0" d="M94.39,137.13h1.93c.01.21.08.38.21.49.12.12.29.18.51.18s.37-.05.48-.14c.11-.1.16-.24.16-.43,0-.17-.05-.3-.14-.41-.09-.1-.23-.18-.43-.22l-1.19-.29c-.49-.12-.86-.37-1.11-.77-.25-.4-.37-.93-.37-1.6,0-.89.19-1.54.56-1.95.38-.41.98-.61,1.8-.61s1.49.2,1.91.61c.42.41.64,1.05.67,1.91h-1.85c-.02-.25-.1-.44-.23-.57-.13-.13-.32-.19-.57-.19-.18,0-.32.05-.42.14-.1.1-.15.22-.15.39,0,.15.04.27.12.35.08.08.24.15.49.22l1.45.4c.45.13.79.38,1.01.77s.34.91.34,1.56c0,.98-.22,1.69-.67,2.15s-1.15.68-2.12.68c-.77,0-1.35-.23-1.76-.69-.41-.46-.62-1.12-.62-1.98Z"/>
        <path class="st0" d="M100.2,139.56v-7.97h1.59v2.76h1.81v-2.76h1.59v7.97h-1.59v-3.22h-1.81v3.22h-1.59Z"/>
        <path class="st0" d="M105.86,135.58c0-1.39.23-2.43.7-3.14.46-.71,1.15-1.06,2.06-1.06s1.6.35,2.06,1.06c.46.71.7,1.75.7,3.14s-.23,2.43-.7,3.13c-.46.71-1.15,1.06-2.06,1.06s-1.6-.35-2.06-1.06c-.46-.71-.7-1.75-.7-3.13ZM107.57,135.58c0,.69.09,1.22.27,1.59.18.37.44.55.78.55s.6-.18.78-.55c.18-.37.27-.9.27-1.59s-.09-1.23-.27-1.6c-.18-.37-.44-.56-.78-.56s-.6.19-.78.56-.27.9-.27,1.6Z"/>
        <path class="st0" d="M112.04,139.56v-7.97h3.07c.58,0,1.03.23,1.34.68.32.45.47,1.09.47,1.91s-.16,1.45-.47,1.91c-.32.45-.76.68-1.34.68h-1.48v2.8h-1.59ZM114.5,133.3h-.87v1.72h.87c.26,0,.44-.06.54-.19.1-.13.15-.35.15-.67s-.05-.54-.15-.67c-.1-.13-.28-.19-.54-.19Z"/>
        <path class="st0" d="M117.85,139.56c.01-.37.04-.71.09-1.01.04-.3.1-.57.18-.8.1-.31.22-.61.37-.9.15-.29.39-.68.73-1.18.08-.12.19-.28.34-.49.44-.63.72-1.11.85-1.45h-3.13v-1.95h5.02c0,.44-.03.85-.08,1.22s-.12.73-.22,1.06c-.14.48-.45,1.12-.93,1.91l-.04.06s-.06.11-.12.19c-.34.56-.57,1.03-.7,1.4-.1.29-.17.59-.22.9-.05.31-.08.65-.09,1.02h-2.07Z"/>
        <path class="st0" d="M123.17,135.43c-.15-.13-.26-.32-.33-.55s-.11-.53-.11-.89c0-.82.2-1.42.59-1.81.4-.39,1.01-.59,1.84-.59s1.44.2,1.83.59.59,1,.59,1.81c0,.36-.03.65-.1.89s-.18.41-.33.55c.16.16.28.37.36.64.08.27.12.6.12,1,0,.92-.2,1.6-.59,2.03s-1.02.64-1.88.64-1.48-.21-1.88-.64c-.4-.43-.59-1.11-.59-2.03,0-.4.04-.73.12-1s.2-.49.36-.64ZM124.33,137.11c0,.23.06.4.19.5.13.1.34.15.64.15s.52-.05.65-.15c.13-.1.19-.27.19-.5s-.06-.4-.19-.5c-.13-.1-.34-.15-.64-.15s-.51.05-.64.15c-.13.1-.19.27-.19.5ZM124.38,134.09c0,.2.06.35.18.43.12.09.32.13.61.13s.49-.04.61-.13c.12-.09.18-.23.18-.43s-.06-.35-.18-.43-.32-.13-.61-.13-.49.04-.61.13-.18.23-.18.43Z"/>
        <path class="st0" d="M129.7,134.9c.18-.16.38-.27.58-.35.2-.08.42-.11.65-.11.71,0,1.24.22,1.61.67.37.44.55,1.09.55,1.94,0,.91-.19,1.59-.58,2.05-.39.46-.96.69-1.73.69-.93,0-1.61-.32-2.03-.97s-.63-1.69-.63-3.11.21-2.42.62-3.1c.42-.68,1.06-1.02,1.92-1.02.75,0,1.32.2,1.71.61.39.41.61,1.03.67,1.86h-1.61c-.02-.18-.09-.32-.21-.4-.11-.08-.28-.13-.5-.13-.31,0-.54.11-.71.34-.17.23-.27.57-.31,1.04ZM129.85,137.04c0,.27.07.46.2.59.13.13.33.19.6.19s.47-.06.6-.19c.13-.13.2-.32.2-.59s-.07-.46-.2-.59-.33-.19-.6-.19-.47.06-.6.19c-.13.13-.2.32-.2.59Z"/>
      </g>
    </g>
  </g>
</svg>