<?xml version="1.0" encoding="UTF-8"?>
<svg id="Layer_1" xmlns="http://www.w3.org/2000/svg" version="1.1" viewBox="0 0 512 512">
  <!-- Generator: Adobe Illustrator 29.6.0, SVG Export Plug-In . SVG Version: 2.1.1 Build 207)  -->
  <defs>
    <style>
      .st0 {
        fill: #fdd600;
      }

      .st1 {
        fill: #066;
      }

      .st2 {
        fill: #231f20;
      }

      .st3 {
        fill: #0a0a0a;
      }
    </style>
  </defs>
  <rect class="st3" width="512" height="512"/>
  <circle class="st1" cx="256" cy="256" r="160"/>
  <g>
    <g>
      <path class="st0" d="M246.82,141.98l-.29,20.9s-45.53-13.56-46.65,11.19c0,0-1.55,50.82-12.63,57.47,0,0,9.06,6.84,10.62,35.2-6.51,1.58-13.78,3.9-21.54,7.3l-2.27-22.53s-.93-13.81-18.66-13.25v-14.55s15.86,5.04,18.29-14.37l3.05-33.52s1.66-32.26,26.12-35.41c0,0,16.34-3.57,43.95,1.58Z"/>
      <path class="st0" d="M261.96,219.97v56.37c-6.82-4.79-15.32-9.61-23.88-11.55v-22.42h-20.15v-22.39h44.04Z"/>
      <path class="st0" d="M261.96,311.57v1.89s-28.55,17.73-59.71,8.59c0,0-23.56-4.82-25.47-42.04,3.85-1.36,12.19-4.06,21.91-5.77l1.88,15.34s.56,20.71,37.51,10.82v-12.31c3.29,2.12,8.91,6.16,12.18,10.89,0,.01.01.02.02.03.29.4,4.9,6.85,11.69,12.57Z"/>
      <path d="M322.29,222.84s.19.14.53.42l-5.29,22.22s-.01.05-.02.08c-.94,4.57-1.85,8.51-2.73,11.91-3.56-4.06-7.63-7.99-11.9-10.78-2.24-1.46-4.45-2.99-6.55-4.64-9.53-7.48-30.63-25.79-29.91-40.54,0,0-4.48-28.74,24.07-40.49s46.96-1,46.96-1l-4.85,21.27s-10.27-19.6-30.42-12.04c-4.75,1.78-8.27,5.86-9.24,10.84-1.71,8.85,1.19,24.24,29.34,42.75Z"/>
      <path d="M346.8,303.94s-11.44,14.43-36.45,14.56c0,0,31.86-17.91,17.43-42.92,0,0-.12-.22-.36-.62.43-2.15,1.05-4.73,1.92-7.83,2.2-7.82,4.92-14.96,4.95-15.03.02-.07.05-.13.07-.2,1.38-4.66,2.66-9.58,3.85-14.68,8.41,8.82,17.29,20.53,18.68,31.76,2.74,22.14-10.08,34.95-10.08,34.95Z"/>
      <path d="M294.33,312.44s-7.17,8.46-19.4,3.94c-4.8-1.77-9.29-5.07-12.97-8.43-5.7-5.19-9.47-10.52-9.47-10.52-4.11-5.95-11.43-10.75-14.41-12.55-.82-.5-1.31-.76-1.31-.76-11.47-6.97-24.06-7.55-24.06-7.55,9.07-1.78,19.02.52,25.37,2.56,3.9,1.25,6.44,2.42,6.61,2.49-2.14-1.6-4.37-2.91-6.61-3.99-10.69-5.17-21.38-5-21.38-5,4.29-1.48,18.38,1.38,18.73,1.45-10.8-5.22-25-4.65-37.07-2.55-9.37,1.62-17.46,4.17-21.7,5.64-1.79.62-2.88,1.04-3.1,1.13,1.03-.5,2.06-.97,3.07-1.42,7.74-3.45,14.98-5.82,21.47-7.42,19.16-4.73,31.85-2.84,31.85-2.84,2.66-.07,5.39.29,8.12.95,8.59,2.09,17.19,7.25,23.88,12.13,7.5,5.46,12.61,10.56,12.61,10.56,14.38,13.68,22.78,16.05,22.78,16.05.25,2.65-3.02,6.14-3.02,6.14Z"/>
      <path d="M349.91,142.43s-1.12-7.28-3.92,0c-2.75,7.14-23.64,112.41-31.47,127.42-.32.61-.62,1.24-.9,1.87-.91,2.08-3.11,6.56-6.26,9.21,0,0-1.29,1.37.58,1.04,0,0-6.3,5.56-6.68,15.14,0,0,.62,20.53-12.56,22.7,0,0,22.21,2.8,32.34-17.04,0,0,4.46-8.38,2.32-16.23,0,0,.96.85.93-.41,0,0-.84-11.21,1.89-15.6,0,0,18.24-52.95,23.72-128.09ZM309.98,294.52l.62-11.19s1.25-.59,2.18.75-2.8,10.45-2.8,10.45ZM318.59,294.13l1.27-8.68s.81-.06,1.38.42c.58.48-2.66,8.26-2.66,8.26ZM323.25,274.58l-.17,10.45s-10.12-4.68-12.73-4.02c-2.61.66,0-1.54,0-1.54,0,0,10.14-15.45,12.07-32.34,0,0,5.64,2.9,7.8,2.69l-6.97,24.76Z"/>
    </g>
    <g>
      <path class="st2" d="M166.89,370.27c-.49.84-1.13,1.46-1.9,1.85-.77.39-1.74.59-2.89.59-2.43,0-4.27-.94-5.5-2.82-1.24-1.88-1.86-4.67-1.86-8.36s.62-6.49,1.86-8.37c1.24-1.88,3.07-2.82,5.5-2.82,2.05,0,3.69.68,4.92,2.03,1.23,1.35,1.93,3.23,2.09,5.63h-4.65c-.23-.86-.53-1.5-.9-1.93s-.82-.63-1.35-.63c-.88,0-1.59.55-2.12,1.65-.53,1.1-.8,2.58-.8,4.44s.26,3.34.79,4.38c.53,1.04,1.26,1.56,2.2,1.56.71,0,1.29-.25,1.76-.75s.75-1.18.86-2.04h-1.76v-4.6h6.11v12.07h-1.91l-.46-1.88Z"/>
      <path class="st2" d="M179.63,350.9c.95,0,1.71.09,2.29.27.57.18,1.02.45,1.34.83.41.47.72,1.1.94,1.89.21.79.32,1.7.32,2.74,0,1.26-.16,2.36-.48,3.31s-.76,1.64-1.32,2.06c.48.39.82.88,1.02,1.46s.31,1.6.34,3.07c0,.16,0,.39.01.68.07,2.78.26,4.32.58,4.63v.33h-4.71c-.14-.45-.22-1.32-.24-2.62,0-.76-.03-1.34-.05-1.75-.04-.78-.18-1.32-.4-1.64-.22-.32-.6-.48-1.13-.48h-2.53v6.48h-4.3v-21.26h8.33ZM175.6,360.08h2.47c.65,0,1.1-.15,1.37-.45.26-.3.4-.8.4-1.49s-.12-1.17-.37-1.44c-.25-.27-.75-.41-1.49-.41h-2.37v3.79Z"/>
      <path class="st2" d="M184.68,372.16l4.74-21.26h5.38l4.42,21.26h-4.59l-.36-2.08h-4.65l-.39,2.08h-4.54ZM190.62,364.83h2.72l-1.32-7.47-1.4,7.47Z"/>
      <path class="st2" d="M200,372.16v-21.26h8.18c1.55,0,2.74.6,3.58,1.8s1.26,2.9,1.26,5.1-.42,3.88-1.26,5.08-2.04,1.8-3.58,1.8h-3.94v7.47h-4.24ZM206.56,355.47h-2.32v4.58h2.32c.69,0,1.17-.17,1.43-.51.26-.34.4-.93.4-1.78s-.13-1.45-.4-1.79c-.26-.34-.74-.51-1.43-.51Z"/>
      <path class="st2" d="M214.47,372.16v-21.26h4.24v7.36h4.84v-7.36h4.24v21.26h-4.24v-8.6h-4.84v8.6h-4.24Z"/>
      <path class="st2" d="M230.18,372.16v-21.26h4.24v21.26h-4.24Z"/>
      <path class="st2" d="M245.93,359.83c-.07-1.31-.31-2.31-.72-3-.41-.69-.97-1.03-1.68-1.03-.91,0-1.6.49-2.08,1.48-.48.99-.72,2.41-.72,4.27s.24,3.26.72,4.24c.48.98,1.17,1.47,2.08,1.47.66,0,1.19-.29,1.59-.87.4-.58.67-1.44.8-2.58h4.89c-.22,2.94-.95,5.17-2.18,6.67s-2.93,2.26-5.09,2.26c-2.43,0-4.27-.94-5.5-2.82-1.24-1.88-1.86-4.67-1.86-8.36s.62-6.49,1.86-8.37c1.24-1.88,3.07-2.82,5.5-2.82,2.27,0,4.02.82,5.27,2.45s1.9,3.98,1.98,7.04h-4.85Z"/>
    </g>
    <g>
      <path class="st0" d="M251.7,365.69h5.14c.04.56.22,1,.55,1.32.33.31.78.47,1.35.47s1-.13,1.28-.38c.29-.25.43-.63.43-1.14,0-.45-.12-.81-.37-1.08-.25-.27-.63-.47-1.14-.6l-3.17-.76c-1.31-.31-2.3-.99-2.96-2.06-.66-1.06-1-2.49-1-4.27,0-2.38.5-4.11,1.51-5.2,1-1.09,2.6-1.64,4.8-1.64s3.97.55,5.08,1.64c1.11,1.09,1.71,2.79,1.8,5.1h-4.93c-.06-.67-.26-1.18-.62-1.52-.36-.34-.87-.51-1.52-.51-.47,0-.85.13-1.12.38-.27.25-.41.6-.41,1.03,0,.4.1.71.31.92.21.21.65.41,1.31.59l3.86,1.06c1.21.34,2.11,1.02,2.71,2.05s.9,2.42.9,4.16c0,2.61-.6,4.52-1.79,5.73s-3.08,1.83-5.65,1.83c-2.04,0-3.61-.61-4.7-1.84-1.09-1.23-1.65-2.98-1.66-5.27Z"/>
      <path class="st0" d="M267.21,372.16v-21.26h4.24v7.36h4.84v-7.36h4.24v21.26h-4.24v-8.6h-4.84v8.6h-4.24Z"/>
      <path class="st0" d="M282.29,361.54c0-3.7.62-6.49,1.86-8.37,1.24-1.88,3.07-2.82,5.5-2.82s4.27.94,5.5,2.82c1.24,1.88,1.86,4.67,1.86,8.37s-.62,6.48-1.86,8.36c-1.24,1.88-3.07,2.82-5.5,2.82s-4.27-.94-5.5-2.82c-1.24-1.88-1.86-4.67-1.86-8.36ZM286.85,361.54c0,1.85.24,3.26.72,4.24.48.98,1.17,1.47,2.08,1.47s1.6-.49,2.08-1.47c.48-.98.72-2.39.72-4.24s-.24-3.28-.72-4.27c-.48-.99-1.17-1.48-2.08-1.48s-1.6.49-2.08,1.48-.72,2.41-.72,4.27Z"/>
      <path class="st0" d="M298.77,372.16v-21.26h8.18c1.55,0,2.74.6,3.58,1.8.84,1.2,1.26,2.9,1.26,5.1s-.42,3.88-1.26,5.08c-.84,1.2-2.04,1.8-3.58,1.8h-3.94v7.47h-4.24ZM305.33,355.47h-2.32v4.58h2.32c.69,0,1.17-.17,1.43-.51.26-.34.4-.93.4-1.78s-.13-1.45-.4-1.79c-.26-.34-.74-.51-1.43-.51Z"/>
      <path class="st0" d="M314.26,372.16c.04-1,.12-1.9.24-2.7.12-.8.28-1.51.47-2.13.27-.82.6-1.62.99-2.39.4-.77,1.04-1.82,1.94-3.14.21-.31.51-.74.9-1.31,1.17-1.68,1.93-2.97,2.26-3.87h-8.34v-5.19h13.39c0,1.17-.07,2.25-.2,3.26s-.32,1.95-.58,2.84c-.37,1.27-1.2,2.97-2.48,5.1l-.1.17c-.07.11-.17.29-.31.52-.9,1.49-1.52,2.74-1.86,3.72-.26.77-.46,1.57-.59,2.41-.13.84-.21,1.74-.23,2.71h-5.51Z"/>
      <path class="st0" d="M328.45,361.15c-.4-.36-.69-.84-.87-1.46s-.28-1.41-.28-2.36c0-2.18.53-3.79,1.58-4.83,1.05-1.04,2.69-1.57,4.89-1.57s3.83.52,4.89,1.57,1.58,2.65,1.58,4.83c0,.96-.09,1.75-.28,2.36s-.48,1.1-.87,1.46c.43.42.75.99.96,1.72.21.72.31,1.61.31,2.67,0,2.46-.53,4.27-1.58,5.41s-2.73,1.72-5.01,1.72-3.95-.57-5.01-1.72c-1.06-1.15-1.58-2.95-1.58-5.41,0-1.05.1-1.94.31-2.67s.53-1.3.96-1.72ZM331.55,365.62c0,.62.17,1.07.51,1.34.34.27.91.4,1.72.4s1.38-.13,1.72-.4c.34-.27.51-.71.51-1.34s-.17-1.05-.51-1.32c-.34-.27-.91-.4-1.71-.4s-1.37.13-1.71.4c-.34.27-.51.71-.51,1.32ZM331.68,357.58c0,.54.16.92.48,1.16.32.23.86.35,1.62.35s1.3-.12,1.62-.35c.32-.23.48-.62.48-1.16s-.16-.92-.48-1.15-.86-.34-1.62-.34-1.3.11-1.62.34-.48.61-.48,1.15Z"/>
      <path class="st0" d="M345.88,359.74c.49-.42,1-.73,1.54-.93.54-.2,1.12-.3,1.74-.3,1.88,0,3.32.59,4.31,1.78.99,1.18,1.48,2.91,1.48,5.17,0,2.42-.52,4.25-1.55,5.47-1.03,1.22-2.56,1.83-4.6,1.83-2.48,0-4.28-.86-5.41-2.59s-1.69-4.5-1.69-8.3.56-6.46,1.67-8.27c1.11-1.81,2.81-2.71,5.11-2.71,1.99,0,3.51.55,4.56,1.64,1.05,1.09,1.64,2.74,1.78,4.96h-4.31c-.06-.49-.25-.85-.56-1.07-.31-.22-.75-.34-1.34-.34-.81,0-1.44.3-1.89.9-.45.6-.73,1.53-.84,2.77ZM346.28,365.45c0,.71.17,1.23.52,1.57.35.34.88.51,1.61.51s1.25-.17,1.6-.51c.35-.34.53-.86.53-1.57s-.18-1.22-.53-1.57-.88-.52-1.6-.52-1.26.17-1.61.51c-.35.34-.52.86-.52,1.57Z"/>
    </g>
  </g>
</svg>